<?xml version="1.0" encoding="UTF-8" standalone="no"?>
<!-- Generator: Adobe Illustrator 16.0.0, SVG Export Plug-In . SVG Version: 6.00 Build 0)  -->

<svg
   xmlns:dc="http://purl.org/dc/elements/1.1/"
   xmlns:cc="http://creativecommons.org/ns#"
   xmlns:rdf="http://www.w3.org/1999/02/22-rdf-syntax-ns#"
   xmlns:svg="http://www.w3.org/2000/svg"
   xmlns="http://www.w3.org/2000/svg"
   xmlns:sodipodi="http://sodipodi.sourceforge.net/DTD/sodipodi-0.dtd"
   xmlns:inkscape="http://www.inkscape.org/namespaces/inkscape"
   version="1.1"
   id="Capa_1"
   x="0px"
   y="0px"
   width="32"
   height="24"
   viewBox="0 0 32 24"
   xml:space="preserve"
   inkscape:version="0.48.4 r9939"
   sodipodi:docname="Logo1.svg"><metadata
     id="metadata3032"><rdf:RDF><cc:Work
         rdf:about=""><dc:format>image/svg+xml</dc:format><dc:type
           rdf:resource="http://purl.org/dc/dcmitype/StillImage" /><dc:title></dc:title></cc:Work></rdf:RDF></metadata><defs
     id="defs3030" /><sodipodi:namedview
     pagecolor="#ffffff"
     bordercolor="#666666"
     borderopacity="1"
     objecttolerance="10"
     gridtolerance="10"
     guidetolerance="10"
     inkscape:pageopacity="0"
     inkscape:pageshadow="2"
     inkscape:window-width="1596"
     inkscape:window-height="861"
     id="namedview3028"
     showgrid="false"
     inkscape:zoom="21.0625"
     inkscape:cx="19.597117"
     inkscape:cy="13.67359"
     inkscape:window-x="0"
     inkscape:window-y="18"
     inkscape:window-maximized="0"
     inkscape:current-layer="g2988" /><g
     id="g2986"
     transform="translate(0,-8)"><g
       id="g2988"><path
         d="m 14.477336,17.72686 c -0.402,-1.468 -2.015,-1.929 -2,-3.973 -0.548,0.043 -1.368,2.274 -1.238,3.641 0.13,1.367 1.756,2.937 2.102,2.764 0.346,-0.173 1.539,-0.964 1.136,-2.432 z"
         id="path2992"
         inkscape:connector-curvature="0" /><path
         d="m 13.247336,14.27686 c 0.11,0.279 0.282,0.58 0.508,0.822 0.219,0.255 0.473,0.477 0.719,0.68 0.251,0.207 0.485,0.396 0.683,0.589 0.201,0.192 0.338,0.379 0.424,0.579 l 0.035,0.074 0.019,0.037 0.002,0.004 0.003,0.011 0.068,0.244 c 0.016,0.135 0.046,0.194 0.047,0.331 0.014,0.12 -10e-4,0.239 -0.004,0.36 -0.021,0.119 -0.036,0.239 -0.072,0.356 -0.129,0.473 -0.423,0.914 -0.725,1.268 -0.154,0.175 -0.309,0.336 -0.453,0.473 -0.148,0.132 -0.28,0.254 -0.397,0.346 -0.238,0.19 -0.373,0.299 -0.373,0.299 0,0 0.043,-0.002 0.127,-0.006 0.08,-0.011 0.209,-0.007 0.359,-0.043 0.153,-0.025 0.342,-0.065 0.551,-0.139 0.209,-0.071 0.442,-0.167 0.688,-0.305 0.24,-0.144 0.496,-0.318 0.731,-0.559 0.242,-0.232 0.464,-0.53 0.632,-0.883 0.17,-0.348 0.276,-0.764 0.275,-1.187 0.016,-0.196 -0.025,-0.469 -0.062,-0.664 l -0.062,-0.244 -0.008,-0.032 -0.004,-0.014 -0.016,-0.05 -0.005,-0.01 -0.032,-0.08 -0.065,-0.158 c -0.19,-0.414 -0.487,-0.768 -0.79,-1.005 -0.299,-0.251 -0.604,-0.434 -0.87,-0.59 -0.272,-0.16 -0.519,-0.297 -0.72,-0.44 -0.051,-0.036 -0.104,-0.072 -0.153,-0.106 -0.044,-0.038 -0.087,-0.075 -0.13,-0.111 -0.096,-0.068 -0.15,-0.153 -0.229,-0.229 -0.074,-0.076 -0.116,-0.167 -0.181,-0.246 -0.055,-0.083 -0.087,-0.174 -0.131,-0.257 -0.073,-0.17 -0.114,-0.329 -0.16,-0.473 -0.047,-0.301 -0.091,-0.475 -0.091,-0.475 0,0 -0.077,0.162 -0.182,0.45 -0.03,0.148 -0.089,0.354 -0.085,0.587 0.005,0.116 -0.002,0.245 0.02,0.379 0.028,0.129 0.054,0.277 0.109,0.417 z"
         id="path2994"
         inkscape:connector-curvature="0" /><path
         d="m 9.2473353,16.53786 0.032,0.182 c 0.048,0.232 0.104,0.445 0.175,0.654 0.288,0.831 0.7429997,1.494 1.1940007,1.985 0.223,0.249 0.457,0.447 0.665,0.617 0.208,0.17 0.414,0.291 0.58,0.386 0.169,0.094 0.315,0.146 0.415,0.174 0.101,0.026 0.155,0.026 0.155,0.026 0,0 -0.048,-0.027 -0.122,-0.091 -0.076,-0.062 -0.173,-0.168 -0.289,-0.306 -0.229,-0.278 -0.523,-0.702 -0.797,-1.237 -0.278,-0.531 -0.54,-1.175 -0.672,-1.864 -0.035,-0.169 -0.058,-0.348 -0.071,-0.516 l -0.009,-0.12 -0.007,-0.154 c -10e-4,-0.076 0.005,-0.142 0.014,-0.214 0.033,-0.283 0.154,-0.583 0.323,-0.902 0.178,-0.316 0.391,-0.645 0.62,-0.977 0.227,-0.334 0.458,-0.676 0.672,-1.025 0.211,-0.35 0.402,-0.709 0.552,-1.068 0.149,-0.36 0.26,-0.719 0.321,-1.058 0.061,-0.34 0.075,-0.657 0.061,-0.933 -0.014,-0.2769995 -0.058,-0.5099995 -0.106,-0.6999995 -0.047,-0.191 -0.102,-0.329 -0.142,-0.422 -0.04,-0.093 -0.061,-0.144 -0.061,-0.144 0,0 -0.008,0.054 -0.022,0.155 -0.007,0.101 -0.033,0.25 -0.063,0.425 -0.034,0.177 -0.086,0.39 -0.154,0.6219995 -0.078,0.232 -0.177,0.483 -0.305,0.743 -0.256,0.524 -0.644,1.075 -1.114,1.667 -0.233,0.299 -0.488,0.609 -0.742,0.946 -0.252001,0.338 -0.5130007,0.703 -0.7330007,1.127 -0.219,0.421 -0.399,0.924 -0.412,1.47 -10e-4,0.133 0.007,0.274 0.022,0.401 l 0.02,0.151 z"
         id="path2996"
         inkscape:connector-curvature="0" /><text
         xml:space="preserve"
         style="font-size:28.53815269px;font-style:normal;font-variant:normal;font-weight:normal;font-stretch:normal;line-height:125%;letter-spacing:0px;word-spacing:0px;fill:#000000;fill-opacity:1;stroke:none;font-family:Courier 10 Pitch;-inkscape-font-specification:Courier 10 Pitch"
         x="0.40237647"
         y="28.409796"
         id="text3034"
         sodipodi:linespacing="125%"><tspan
           sodipodi:role="line"
           id="tspan3036"
           x="0.40237647"
           y="28.409796"
           style="font-size:14.26907635px;font-style:normal;font-variant:normal;font-weight:normal;font-stretch:normal;font-family:Polaris;-inkscape-font-specification:Polaris">kyzr</tspan></text>
<text
         xml:space="preserve"
         style="font-size:6px;font-style:normal;font-variant:normal;font-weight:normal;font-stretch:normal;line-height:125%;letter-spacing:0px;word-spacing:0px;fill:#000000;fill-opacity:1;stroke:none;font-family:Courier 10 Pitch;-inkscape-font-specification:Courier 10 Pitch"
         x="4.0356083"
         y="27.679525"
         id="text3015"
         sodipodi:linespacing="125%"><tspan
           sodipodi:role="line"
           id="tspan3017"
           x="4.0356083"
           y="27.679525" /></text>
</g></g><g
     id="g2998"
     transform="translate(0,-8)" /><g
     id="g3000"
     transform="translate(0,-8)" /><g
     id="g3002"
     transform="translate(0,-8)" /><g
     id="g3004"
     transform="translate(0,-8)" /><g
     id="g3006"
     transform="translate(0,-8)" /><g
     id="g3008"
     transform="translate(0,-8)" /><g
     id="g3010"
     transform="translate(0,-8)" /><g
     id="g3012"
     transform="translate(0,-8)" /><g
     id="g3014"
     transform="translate(0,-8)" /><g
     id="g3016"
     transform="translate(0,-8)" /><g
     id="g3018"
     transform="translate(0,-8)" /><g
     id="g3020"
     transform="translate(0,-8)" /><g
     id="g3022"
     transform="translate(0,-8)" /><g
     id="g3024"
     transform="translate(0,-8)" /><g
     id="g3026"
     transform="translate(0,-8)" /></svg>