<?xml version="1.0" encoding="UTF-8" standalone="no"?>
<!-- Generator: Adobe Illustrator 16.0.0, SVG Export Plug-In . SVG Version: 6.00 Build 0)  -->

<svg
   xmlns:dc="http://purl.org/dc/elements/1.1/"
   xmlns:cc="http://creativecommons.org/ns#"
   xmlns:rdf="http://www.w3.org/1999/02/22-rdf-syntax-ns#"
   xmlns:svg="http://www.w3.org/2000/svg"
   xmlns="http://www.w3.org/2000/svg"
   xmlns:sodipodi="http://sodipodi.sourceforge.net/DTD/sodipodi-0.dtd"
   xmlns:inkscape="http://www.inkscape.org/namespaces/inkscape"
   version="1.1"
   id="Capa_1"
   x="0px"
   y="0px"
   width="32px"
   height="32px"
   viewBox="0 0 32 32"
   style="enable-background:new 0 0 32 32;"
   xml:space="preserve"
   inkscape:version="0.48.4 r9939"
   sodipodi:docname="torch5.svg"><metadata
     id="metadata49"><rdf:RDF><cc:Work
         rdf:about=""><dc:format>image/svg+xml</dc:format><dc:type
           rdf:resource="http://purl.org/dc/dcmitype/StillImage" /><dc:title></dc:title></cc:Work></rdf:RDF></metadata><defs
     id="defs47" /><sodipodi:namedview
     pagecolor="#ffffff"
     bordercolor="#666666"
     borderopacity="1"
     objecttolerance="10"
     gridtolerance="10"
     guidetolerance="10"
     inkscape:pageopacity="0"
     inkscape:pageshadow="2"
     inkscape:window-width="1596"
     inkscape:window-height="861"
     id="namedview45"
     showgrid="false"
     inkscape:zoom="14.75"
     inkscape:cx="20.501289"
     inkscape:cy="15.742566"
     inkscape:window-x="0"
     inkscape:window-y="18"
     inkscape:window-maximized="0"
     inkscape:current-layer="g5" /><g
     id="g3"><g
       id="g5"><path
         d="m 20.025523,23.721554 c -1.060593,-3.873009 -5.316153,-5.089261 -5.27658,-10.481925 -1.445782,0.113447 -3.60918,5.999471 -3.266202,9.606012 0.342978,3.606543 4.632837,7.748657 5.545685,7.292234 0.912848,-0.456424 4.060327,-2.543311 2.997097,-6.416321 z"
         id="path9"
         inkscape:connector-curvature="0" /><path
         d="m 16.780426,14.619454 c 0.290213,0.736083 0.743999,1.530209 1.340252,2.168675 0.577785,0.672764 1.247911,1.258464 1.89693,1.794036 0.66221,0.546127 1.27957,1.044763 1.801952,1.553953 0.530296,0.506552 0.891741,0.999913 1.118635,1.52757 l 0.09234,0.195233 0.05012,0.09762 0.0053,0.01056 0.0079,0.02902 0.179403,0.643743 c 0.04221,0.356169 0.121362,0.511828 0.124001,0.873274 0.03694,0.316595 -0.0027,0.630551 -0.01056,0.949784 -0.05541,0.313956 -0.09497,0.630551 -0.189958,0.939231 -0.340338,1.247911 -1.115996,2.411397 -1.91276,3.345352 -0.406297,0.461701 -0.815231,0.886465 -1.195145,1.247911 -0.390466,0.348254 -0.738721,0.670126 -1.047401,0.912848 -0.627913,0.501275 -0.984082,0.788848 -0.984082,0.788848 0,0 0.113446,-0.0053 0.335063,-0.01583 0.211063,-0.02902 0.551402,-0.01847 0.947146,-0.113447 0.403659,-0.06596 0.902295,-0.171488 1.453698,-0.366722 0.551402,-0.187319 1.166123,-0.440594 1.815143,-0.804678 0.633189,-0.379914 1.308592,-0.838977 1.92859,-1.474804 0.638466,-0.612084 1.224166,-1.398294 1.667399,-2.32961 0.448509,-0.918124 0.728168,-2.015653 0.72553,-3.13165 0.04221,-0.517105 -0.06596,-1.237358 -0.163574,-1.751825 l -0.163574,-0.643742 -0.02111,-0.08443 -0.01056,-0.03694 -0.04221,-0.131915 -0.01319,-0.02638 -0.08443,-0.211063 -0.171488,-0.41685 c -0.50126,-1.092253 -1.284832,-2.026208 -2.084233,-2.651482 -0.788849,-0.662211 -1.593527,-1.145018 -2.295313,-1.556591 -0.717614,-0.422126 -1.369272,-0.783572 -1.899568,-1.160848 -0.134553,-0.09498 -0.274382,-0.189957 -0.403658,-0.279659 -0.116085,-0.100255 -0.229531,-0.197872 -0.342978,-0.29285 -0.253275,-0.179403 -0.395743,-0.403658 -0.604168,-0.604168 -0.195234,-0.20051 -0.306042,-0.440595 -0.47753,-0.64902 -0.145107,-0.218978 -0.229532,-0.459061 -0.345617,-0.67804 -0.192595,-0.448509 -0.300765,-0.867997 -0.422126,-1.247911 -0.123999,-0.794125 -0.240085,-1.2531872 -0.240085,-1.2531872 0,0 -0.203147,0.4274022 -0.480168,1.1872302 -0.07915,0.390467 -0.234808,0.933954 -0.224255,1.548676 0.01319,0.306042 -0.0053,0.646381 0.05277,0.999912 0.07388,0.34034 0.142468,0.730806 0.287573,1.100166 z"
         id="path11"
         inkscape:connector-curvature="0" /><path
         d="m 6.2272682,20.584628 0.084426,0.480168 c 0.1266379,0.612084 0.2743821,1.174039 0.4617006,1.725441 0.7598275,2.192419 1.9602493,3.941605 3.1501183,5.237006 0.5883379,0.656934 1.2056969,1.179316 1.7544619,1.627824 0.548764,0.44851 1.092252,0.767743 1.530208,1.01838 0.445871,0.248 0.831061,0.38519 1.09489,0.459063 0.266467,0.06859 0.408935,0.06859 0.408935,0.06859 0,0 -0.126638,-0.07123 -0.321871,-0.240085 -0.20051,-0.163571 -0.456425,-0.44323 -0.762466,-0.807314 C 13.023502,29.42026 12.247845,28.301625 11.524953,26.89014 10.791509,25.489208 10.100277,23.79015 9.7520231,21.972368 9.6596831,21.526497 9.5990021,21.054243 9.5647041,20.61101 l -0.02374,-0.316595 -0.01847,-0.406295 c -0.0026,-0.200511 0.01319,-0.374638 0.03694,-0.564595 0.08706,-0.746636 0.406296,-1.538123 0.8521669,-2.379737 0.469616,-0.8337 1.031572,-1.701697 1.63574,-2.57761 0.598892,-0.881188 1.208337,-1.783483 1.772931,-2.704247 0.556679,-0.9234 1.060592,-1.8705462 1.456336,-2.8176922 0.393099,-0.9497844 0.685949,-1.8969304 0.846885,-2.7913106 0.160935,-0.8970185 0.197872,-1.7333563 0.160935,-2.4615243 -0.03694,-0.7308062 -0.153021,-1.3455278 -0.279658,-1.8468028 -0.124,-0.5039133 -0.269106,-0.86799717 -0.374638,-1.11335817 -0.105531,-0.2453609 -0.160935,-0.3799137 -0.160935,-0.3799137 0,0 -0.02111,0.1424677 -0.05804,0.4089349 -0.01846,0.2664673 -0.08706,0.65957237 -0.16621,1.12127307 -0.0897,0.4669773 -0.226892,1.028933 -0.406297,1.6410162 C 14.632859,4.0346366 14.371668,4.6968473 14.033968,5.3828027 13.358565,6.7652664 12.334909,8.2189638 11.094912,9.7808318 10.480191,10.56968 9.8074271,11.38755 9.1373021,12.276653 8.4724527,13.168395 7.7838592,14.131371 7.2034354,15.250005 6.62565,16.360726 6.1507579,17.687785 6.1164601,19.128292 c -0.00264,0.350893 0.018468,0.722891 0.058042,1.057954 l 0.052766,0.398382 z"
         id="path13"
         inkscape:connector-curvature="0" /></g></g><g
     id="g15" /><g
     id="g17" /><g
     id="g19" /><g
     id="g21" /><g
     id="g23" /><g
     id="g25" /><g
     id="g27" /><g
     id="g29" /><g
     id="g31" /><g
     id="g33" /><g
     id="g35" /><g
     id="g37" /><g
     id="g39" /><g
     id="g41" /><g
     id="g43" /></svg>